<svg xmlns="http://www.w3.org/2000/svg" xmlns:xlink="http://www.w3.org/1999/xlink" viewBox="0 0 500 500"><defs><clipPath id="freepik--clip-path--inject-96"><path d="M204.68,327.42s-3.05,13.37-4.22,17.36-5.86,12-6.57,25.32-4,45.5-4,45.5-8,7.27-10.32,9.61-.71,3.29.94,4.46,9.84,5.63,13.6,5.39,6.09-.94,6.33-4.69.23-12.19,1.17-15,13.84-42.21,16.65-53.93,2.81-18.06,2.81-18.06l4.93-12.9Z" style="fill:#fff;stroke:#263238;stroke-miterlimit:10"></path></clipPath><clipPath id="freepik--clip-path-2--inject-96"><path d="M219,358.23c-8.07-5.24-17.46-4.5-22.23-3.63a59.76,59.76,0,0,0-2.89,15.5c-.7,13.37-4,45.5-4,45.5s-8,7.27-10.32,9.61-.71,3.29.94,4.46,9.84,5.63,13.6,5.39,6.09-.94,6.33-4.69.23-12.19,1.17-15,13.84-42.21,16.65-53.93C218.55,360.31,218.79,359.25,219,358.23Z" style="fill:#fff;stroke:#263238;stroke-miterlimit:10"></path></clipPath><clipPath id="freepik--clip-path-3--inject-96"><path d="M282.3,327.42s3.05,13.37,4.22,17.36,5.87,12,6.57,25.32,4,45.5,4,45.5,8,7.27,10.32,9.61.7,3.29-.94,4.46-9.85,5.63-13.6,5.39-6.1-.94-6.34-4.69-.23-12.19-1.17-15-13.83-42.21-16.65-53.93-2.81-18.06-2.81-18.06L261,330.47Z" style="fill:#fff;stroke:#263238;stroke-miterlimit:10"></path></clipPath><clipPath id="freepik--clip-path-4--inject-96"><path d="M268,358.23c8.06-5.24,17.45-4.5,22.22-3.63a58.93,58.93,0,0,1,2.89,15.5c.7,13.37,4,45.5,4,45.5s8,7.27,10.32,9.61.7,3.29-.94,4.46-9.85,5.63-13.6,5.39-6.1-.94-6.34-4.69-.23-12.19-1.17-15-13.83-42.21-16.65-53.93C268.43,360.31,268.2,359.25,268,358.23Z" style="fill:#fff;stroke:#263238;stroke-miterlimit:10"></path></clipPath><clipPath id="freepik--clip-path-5--inject-96"><path d="M273.84,155.3s6.33-10.54,9.14-14.05,4-5.15,4-5.15-34.43-.24-35.84-.94-1.87-2.34-4-4.45-3.51-2.81-3.28-3.75,3.75,0,3.75,0a21,21,0,0,0-6.09-3.51c-3.05-.94-1.64-2.81,2.11-3s8-.7,11.47,1.41,7,8,7,8a191.26,191.26,0,0,1,23.66-7.49c11.95-2.81,23.66-2.58,24.36-1.64s-10.54,34.66-27.87,51.3Z" style="fill:#fff;stroke:#263238;stroke-miterlimit:10"></path></clipPath><clipPath id="freepik--clip-path-6--inject-96"><path d="M204.52,155.3s-6.33-10.54-9.14-14.05-4-5.15-4-5.15,34.44-.24,35.84-.94,1.87-2.34,4-4.45,3.52-2.81,3.28-3.75-3.75,0-3.75,0a21,21,0,0,1,6.09-3.51c3-.94,1.64-2.81-2.1-3s-8-.7-11.48,1.41-7,8-7,8a191.26,191.26,0,0,0-23.66-7.49c-11.94-2.81-23.66-2.58-24.36-1.64s10.54,34.66,27.88,51.3Z" style="fill:#fff;stroke:#263238;stroke-linecap:round;stroke-linejoin:round"></path></clipPath><clipPath id="freepik--clip-path-7--inject-96"><path d="M255.58,171.47l-15.69-.94c-11.71-.7-15.46.23-15.46.23L203.35,153.2l-12.42,18.74,17.57,21.31s3.05,17.1,5.39,26.71,3.28,29.28,2.11,34.19-.24,7.27,1.64,8.2,15.46,3.75,32.09,2.81,22.25-2.57,24.12-5.85.24-8.43-.46-12.18.23-16.63.7-27.17,1.4-23.66,1.4-23.66l15-24.13s-1.41-8.2-5.39-14.29a25.8,25.8,0,0,0-8.43-8.43l-10.08,13.82Z" style="fill:#ED4E38;stroke:#263238;stroke-miterlimit:10"></path></clipPath></defs><g id="freepik--background-simple--inject-96"><path d="M415.25,322.72a165.65,165.65,0,0,0,.73-36.44C407,180.12,318.19,67.76,218.14,93.81c-34.58,9-60.19,33.58-75.45,68.88-11.2,25.9-19.13,56.2-37.34,76.94-29.86,34-65.91,87.25-20.59,133.74s100.92,16.29,148.29,13.9c39.82-2,80.06,12.82,119.75,7.48C390.51,389.68,410.11,360.17,415.25,322.72Z" style="fill:#ED4E38"></path><path d="M415.25,322.72a165.65,165.65,0,0,0,.73-36.44C407,180.12,318.19,67.76,218.14,93.81c-34.58,9-60.19,33.58-75.45,68.88-11.2,25.9-19.13,56.2-37.34,76.94-29.86,34-65.91,87.25-20.59,133.74s100.92,16.29,148.29,13.9c39.82-2,80.06,12.82,119.75,7.48C390.51,389.68,410.11,360.17,415.25,322.72Z" style="fill:#fff;opacity:0.7000000000000001"></path></g><g id="freepik--character-1--inject-96"><ellipse cx="241.61" cy="435.92" rx="80.27" ry="13.71" style="fill:#263238"></ellipse><polygon points="232.16 162.8 231.22 173.34 249.49 173.34 248.32 162.8 232.16 162.8" style="fill:#fff;stroke:#263238;stroke-miterlimit:10"></polygon><path d="M224.14,145.23s-2.08-2.6-2.86,1,2.86,8.82,4.67,9.6.26-7.27,0-9.34S224.14,145.23,224.14,145.23Z" style="fill:#fff;stroke:#263238;stroke-miterlimit:10"></path><path d="M257.08,145.23s2.08-2.6,2.86,1-2.86,8.82-4.68,9.6-.25-7.27,0-9.34S257.08,145.23,257.08,145.23Z" style="fill:#fff;stroke:#263238;stroke-miterlimit:10"></path><path d="M242.93,124.62a14.18,14.18,0,0,0-11-.23c-6.09,2.34-8,10.77-8.44,17.33s2.58,16.86,4.22,19,4.68,5.39,4.68,5.39h15.46s5.39-5.62,7.5-11,2.58-19,.94-24.13S248.32,122.75,242.93,124.62Z" style="fill:#263238;stroke:#263238;stroke-miterlimit:10"></path><path d="M204.68,327.42s-3.05,13.37-4.22,17.36-5.86,12-6.57,25.32-4,45.5-4,45.5-8,7.27-10.32,9.61-.71,3.29.94,4.46,9.84,5.63,13.6,5.39,6.09-.94,6.33-4.69.23-12.19,1.17-15,13.84-42.21,16.65-53.93,2.81-18.06,2.81-18.06l4.93-12.9Z" style="fill:#fff"></path><g style="clip-path:url(#freepik--clip-path--inject-96)"><path d="M209,332.22s-7.86,15.07-9.48,31.46S190,433.92,190,433.92l4.12,1.14s21.73-74,22.59-82.16,3-22.84,3-22.84" style="opacity:0.30000000000000004"></path></g><path d="M204.68,327.42s-3.05,13.37-4.22,17.36-5.86,12-6.57,25.32-4,45.5-4,45.5-8,7.27-10.32,9.61-.71,3.29.94,4.46,9.84,5.63,13.6,5.39,6.09-.94,6.33-4.69.23-12.19,1.17-15,13.84-42.21,16.65-53.93,2.81-18.06,2.81-18.06l4.93-12.9Z" style="fill:none;stroke:#263238;stroke-miterlimit:10"></path><path d="M219,358.23c-8.07-5.24-17.46-4.5-22.23-3.63a59.76,59.76,0,0,0-2.89,15.5c-.7,13.37-4,45.5-4,45.5s-8,7.27-10.32,9.61-.71,3.29.94,4.46,9.84,5.63,13.6,5.39,6.09-.94,6.33-4.69.23-12.19,1.17-15,13.84-42.21,16.65-53.93C218.55,360.31,218.79,359.25,219,358.23Z" style="fill:#fff"></path><g style="clip-path:url(#freepik--clip-path-2--inject-96)"><path d="M209,332.22s-7.86,15.07-9.48,31.46S190,433.92,190,433.92l4.12,1.14s21.73-74,22.59-82.16,3-22.84,3-22.84" style="opacity:0.30000000000000004"></path></g><path d="M219,358.23c-8.07-5.24-17.46-4.5-22.23-3.63a59.76,59.76,0,0,0-2.89,15.5c-.7,13.37-4,45.5-4,45.5s-8,7.27-10.32,9.61-.71,3.29.94,4.46,9.84,5.63,13.6,5.39,6.09-.94,6.33-4.69.23-12.19,1.17-15,13.84-42.21,16.65-53.93C218.55,360.31,218.79,359.25,219,358.23Z" style="fill:none;stroke:#263238;stroke-miterlimit:10"></path><path d="M200.46,430.37c.21-3.43.23-10.78.95-14.16-1-.43-5.8-2.2-7,.09a54,54,0,0,0-2.58,5.63s-2.61-.18-3.75-4.62c-2.5,2.3-6.82,6.28-8.44,7.9-2.35,2.35-.71,3.29.94,4.46s9.84,5.63,13.6,5.39S200.22,434.12,200.46,430.37Z" style="fill:#ED4E38;stroke:#263238;stroke-miterlimit:10"></path><path d="M200.46,430.37c0-.24,0-.51,0-.78a12.79,12.79,0,0,1-12.24,1.25,69.92,69.92,0,0,1-9.6-4.45c-.8,1.53.53,2.33,1.87,3.28,1.64,1.17,9.84,5.63,13.6,5.39S200.22,434.12,200.46,430.37Z" style="fill:#263238;stroke:#263238;stroke-miterlimit:10"></path><path d="M282.3,327.42s3.05,13.37,4.22,17.36,5.87,12,6.57,25.32,4,45.5,4,45.5,8,7.27,10.32,9.61.7,3.29-.94,4.46-9.85,5.63-13.6,5.39-6.1-.94-6.34-4.69-.23-12.19-1.17-15-13.83-42.21-16.65-53.93-2.81-18.06-2.81-18.06L261,330.47Z" style="fill:#fff"></path><g style="clip-path:url(#freepik--clip-path-3--inject-96)"><path d="M292.86,435.06a11,11,0,0,0,3.81-.69c-1.18-14.13-6.16-71.8-9.93-78.32-4.31-7.44-6.66-14.49-6.66-20.36a45.6,45.6,0,0,0-.48-7.88l-.67.1-12.74,5.15s4.1,8.11,4.1,12,2.74,14.1,7.44,29.76c3.86,12.87,10.89,47.93,13.28,60C291.58,435,292.2,435,292.86,435.06Z" style="opacity:0.30000000000000004"></path></g><path d="M282.3,327.42s3.05,13.37,4.22,17.36,5.87,12,6.57,25.32,4,45.5,4,45.5,8,7.27,10.32,9.61.7,3.29-.94,4.46-9.85,5.63-13.6,5.39-6.1-.94-6.34-4.69-.23-12.19-1.17-15-13.83-42.21-16.65-53.93-2.81-18.06-2.81-18.06L261,330.47Z" style="fill:none;stroke:#263238;stroke-miterlimit:10"></path><path d="M268,358.23c8.06-5.24,17.45-4.5,22.22-3.63a58.93,58.93,0,0,1,2.89,15.5c.7,13.37,4,45.5,4,45.5s8,7.27,10.32,9.61.7,3.29-.94,4.46-9.85,5.63-13.6,5.39-6.1-.94-6.34-4.69-.23-12.19-1.17-15-13.83-42.21-16.65-53.93C268.43,360.31,268.2,359.25,268,358.23Z" style="fill:#fff"></path><g style="clip-path:url(#freepik--clip-path-4--inject-96)"><path d="M292.86,435.06a11,11,0,0,0,3.81-.69c-1.18-14.13-6.16-71.8-9.93-78.32-4.31-7.44-6.66-14.49-6.66-20.36a45.6,45.6,0,0,0-.48-7.88l-.67.1-12.74,5.15s4.1,8.11,4.1,12,2.74,14.1,7.44,29.76c3.86,12.87,10.89,47.93,13.28,60C291.58,435,292.2,435,292.86,435.06Z" style="opacity:0.30000000000000004"></path></g><path d="M268,358.23c8.06-5.24,17.45-4.5,22.22-3.63a58.93,58.93,0,0,1,2.89,15.5c.7,13.37,4,45.5,4,45.5s8,7.27,10.32,9.61.7,3.29-.94,4.46-9.85,5.63-13.6,5.39-6.1-.94-6.34-4.69-.23-12.19-1.17-15-13.83-42.21-16.65-53.93C268.43,360.31,268.2,359.25,268,358.23Z" style="fill:none;stroke:#263238;stroke-miterlimit:10"></path><path d="M286.52,430.37c-.21-3.43-.23-10.78-.95-14.16,1.06-.43,5.8-2.2,7.05.09a54,54,0,0,1,2.58,5.63s2.62-.18,3.75-4.62c2.51,2.3,6.82,6.28,8.45,7.9,2.34,2.35.7,3.29-.94,4.46s-9.85,5.63-13.6,5.39S286.76,434.12,286.52,430.37Z" style="fill:#ED4E38;stroke:#263238;stroke-miterlimit:10"></path><path d="M286.52,430.37c0-.24,0-.51,0-.78a12.79,12.79,0,0,0,12.24,1.25,68.75,68.75,0,0,0,9.6-4.45c.81,1.53-.53,2.33-1.86,3.28-1.64,1.17-9.85,5.63-13.6,5.39S286.76,434.12,286.52,430.37Z" style="fill:#263238;stroke:#263238;stroke-miterlimit:10"></path><path d="M216.79,258.3s-3.7,7.8-4.11,14.38A36.25,36.25,0,0,1,209.4,285L200,329.79a31.82,31.82,0,0,0,12.73,5.76c7.81,1.64,17.67.82,17.67.82l11.51-41.5,4.52.41,11.91,42.32s4.93-.41,17.26-3.29,16.85-6.57,16.85-6.57l-10.69-47.25s-4.1-16.44-8.21-23.43C273.5,257.06,234.87,264.05,216.79,258.3Z" style="fill:#263238;stroke:#263238;stroke-miterlimit:10"></path><path d="M273.84,155.3s6.33-10.54,9.14-14.05,4-5.15,4-5.15-34.43-.24-35.84-.94-1.87-2.34-4-4.45-3.51-2.81-3.28-3.75,3.75,0,3.75,0a21,21,0,0,0-6.09-3.51c-3.05-.94-1.64-2.81,2.11-3s8-.7,11.47,1.41,7,8,7,8a191.26,191.26,0,0,1,23.66-7.49c11.95-2.81,23.66-2.58,24.36-1.64s-10.54,34.66-27.87,51.3Z" style="fill:#fff"></path><g style="clip-path:url(#freepik--clip-path-5--inject-96)"><path d="M282.28,171.94c13-12.44,22.52-34.44,26.22-45.14-.26-1.62-1-2.67-2.57-1.87-4.09,2-26,27-29.72,35Z" style="fill:#ccc;opacity:0.30000000000000004"></path></g><path d="M273.84,155.3s6.33-10.54,9.14-14.05,4-5.15,4-5.15-34.43-.24-35.84-.94-1.87-2.34-4-4.45-3.51-2.81-3.28-3.75,3.75,0,3.75,0a21,21,0,0,0-6.09-3.51c-3.05-.94-1.64-2.81,2.11-3s8-.7,11.47,1.41,7,8,7,8a191.26,191.26,0,0,1,23.66-7.49c11.95-2.81,23.66-2.58,24.36-1.64s-10.54,34.66-27.87,51.3Z" style="fill:none;stroke:#263238;stroke-miterlimit:10"></path><path d="M243.63,120.4s4.47,1.43,5.84,3.91" style="fill:none;stroke:#263238;stroke-linecap:round;stroke-linejoin:round"></path><path d="M250.57,120.73s3.3,1.65,3.58,3.85" style="fill:none;stroke:#263238;stroke-linecap:round;stroke-linejoin:round"></path><line x1="286.96" y1="136.1" x2="295.96" y2="126.23" style="fill:none;stroke:#263238;stroke-linecap:round;stroke-linejoin:round"></line><path d="M204.52,155.3s-6.33-10.54-9.14-14.05-4-5.15-4-5.15,34.44-.24,35.84-.94,1.87-2.34,4-4.45,3.52-2.81,3.28-3.75-3.75,0-3.75,0a21,21,0,0,1,6.09-3.51c3-.94,1.64-2.81-2.1-3s-8-.7-11.48,1.41-7,8-7,8a191.26,191.26,0,0,0-23.66-7.49c-11.94-2.81-23.66-2.58-24.36-1.64s10.54,34.66,27.88,51.3Z" style="fill:#fff"></path><g style="clip-path:url(#freepik--clip-path-6--inject-96)"><path d="M196.09,171.94l4.7-9.29c-5.89-10.26-20.25-34.75-25-38.15-3.19-2.28-5.06-.46-6.11,1.76C173.24,136.73,182.9,159.28,196.09,171.94Z" style="fill:#ccc;opacity:0.30000000000000004"></path></g><path d="M204.52,155.3s-6.33-10.54-9.14-14.05-4-5.15-4-5.15,34.44-.24,35.84-.94,1.87-2.34,4-4.45,3.52-2.81,3.28-3.75-3.75,0-3.75,0a21,21,0,0,1,6.09-3.51c3-.94,1.64-2.81-2.1-3s-8-.7-11.48,1.41-7,8-7,8a191.26,191.26,0,0,0-23.66-7.49c-11.94-2.81-23.66-2.58-24.36-1.64s10.54,34.66,27.88,51.3Z" style="fill:none;stroke:#263238;stroke-linecap:round;stroke-linejoin:round"></path><path d="M234.74,120.4s-4.53.88-6.45,2.81" style="fill:none;stroke:#263238;stroke-linecap:round;stroke-linejoin:round"></path><path d="M228.29,120.73s-3.3.55-4.68,2.48" style="fill:none;stroke:#263238;stroke-linecap:round;stroke-linejoin:round"></path><line x1="191.4" y1="136.1" x2="183.72" y2="126.51" style="fill:none;stroke:#263238;stroke-linecap:round;stroke-linejoin:round"></line><path d="M255.58,171.47l-15.69-.94c-11.71-.7-15.46.23-15.46.23L203.35,153.2l-12.42,18.74,17.57,21.31s3.05,17.1,5.39,26.71,3.28,29.28,2.11,34.19-.24,7.27,1.64,8.2,15.46,3.75,32.09,2.81,22.25-2.57,24.12-5.85.24-8.43-.46-12.18.23-16.63.7-27.17,1.4-23.66,1.4-23.66l15-24.13s-1.41-8.2-5.39-14.29a25.8,25.8,0,0,0-8.43-8.43l-10.08,13.82Z" style="fill:#ED4E38"></path><g style="clip-path:url(#freepik--clip-path-7--inject-96)"><path d="M224.05,174.92s2.16-1.29,7.33,0,12.92,6,14.65,4.74-3.45-5.17-3.45-5.17,4.31-.43,11.64,1.3,8.18,3.44,11.2,7.75,8.89,5.35,9.48,9.05-14.22,32.75-11.2,31,8.19-12.5,8.19-12.5-2.16,20.69-4.75,28.88,3.88,8.18,1.73,12.49-3.81,13.28-19.14,12.67-25.68-2.32-27-2.76-2.16-5.17,2.15-5.17,11.21,3.45,7.76.86-9-8.61-11.2-13.35,3.87-5.18,3.87-5.18-9.48-29.73-11.63-35.76,8.62,1.29,8.62,1.29l-17.24-17.67,13.36-15.08" style="opacity:0.30000000000000004"></path></g><path d="M255.58,171.47l-15.69-.94c-11.71-.7-15.46.23-15.46.23L203.35,153.2l-12.42,18.74,17.57,21.31s3.05,17.1,5.39,26.71,3.28,29.28,2.11,34.19-.24,7.27,1.64,8.2,15.46,3.75,32.09,2.81,22.25-2.57,24.12-5.85.24-8.43-.46-12.18.23-16.63.7-27.17,1.4-23.66,1.4-23.66l15-24.13s-1.41-8.2-5.39-14.29a25.8,25.8,0,0,0-8.43-8.43l-10.08,13.82Z" style="fill:none;stroke:#263238;stroke-miterlimit:10"></path><path d="M290.49,172.17s-1.41-8.2-5.39-14.29a25.8,25.8,0,0,0-8.43-8.43l-10.08,13.82-11,8.2,20.52,23.86Z" style="fill:#263238"></path><path d="M208.91,195.53,227.6,170.4a20.76,20.76,0,0,0-3.17.36L203.35,153.2l-12.42,18.74,17.57,21.31S208.65,194.11,208.91,195.53Z" style="fill:#263238"></path><path d="M229.05,232V196.09a5.5,5.5,0,0,1-2.42,1.6,8.93,8.93,0,0,1-3.07.57v-5a8.87,8.87,0,0,0,4.06-1.74,9,9,0,0,0,2.94-3.8h5.23V232Z" style="fill:#263238"></path><path d="M259.83,229.4c-1.59,2.12-4.14,3.17-7.64,3.17s-6.06-1-7.65-3.17-2.38-5.22-2.38-9.31V198.91c0-3.89.81-6.82,2.41-8.77s4.14-2.94,7.62-2.94,6,1,7.61,2.94,2.41,4.88,2.41,8.77v21.18C262.21,224.18,261.41,227.29,259.83,229.4Zm-7.71-2.64a2.84,2.84,0,0,0,2.47-1.25q.87-1.24.87-5.3V198.63q0-4.9-2.29-5.51a7.21,7.21,0,0,0-1.45-.1,2.65,2.65,0,0,0-1.91,1c-.62.66-.92,2.19-.92,4.61v21.6q0,4.13.81,5.34A2.76,2.76,0,0,0,252.12,226.76Z" style="fill:#263238"></path></g></svg>